<svg xmlns="http://www.w3.org/2000/svg" width="318.078" height="486.271" viewBox="0 0 318.078 486.271">
  <g id="Group_11459" data-name="Group 11459" transform="translate(-3333.372 -393.198)">
    <g id="Group_11439" data-name="Group 11439" transform="translate(3387.878 623.013)">
      <circle id="Ellipse_973" data-name="Ellipse 973" cx="107.673" cy="107.673" r="107.673" fill="#f9d849"/>
    </g>
    <g id="Group_11440" data-name="Group 11440" transform="translate(3469.093 627.786)">
      <path id="Path_5391" data-name="Path 5391" d="M3425.273,345.485c-17.919,0-27.294-5.18-27.294-10.3s9.375-10.3,27.294-10.3,27.3,5.18,27.3,10.3S3443.194,345.485,3425.273,345.485Zm0-17.247c-14.617,0-23.946,4.115-23.946,6.949s9.329,6.949,23.946,6.949,23.947-4.115,23.947-6.949S3439.892,328.238,3425.273,328.238Z" transform="translate(-3397.979 -324.89)"/>
    </g>
    <g id="Group_11441" data-name="Group 11441" transform="translate(3469.093 561.809)">
      <path id="Path_5392" data-name="Path 5392" d="M3399.653,355.607a1.675,1.675,0,0,1-1.674-1.674V303.781c0-5.117,9.375-10.3,27.294-10.3s27.3,5.18,27.3,10.3c0,5.275-.084,50.157-.084,50.157l-3.349-.006s.083-44.875.083-50.15c0-2.834-9.328-6.949-23.947-6.949s-23.946,4.115-23.946,6.949v50.152A1.675,1.675,0,0,1,3399.653,355.607Z" transform="translate(-3397.979 -293.483)"/>
    </g>
    <g id="Group_11442" data-name="Group 11442" transform="translate(3497.728 613.218)">
      <path id="Path_5393" data-name="Path 5393" d="M3414.038,321.3h-.754a1.674,1.674,0,0,1,0-3.349h.754a1.674,1.674,0,1,1,0,3.349Z" transform="translate(-3411.61 -317.955)"/>
    </g>
    <g id="Group_11443" data-name="Group 11443" transform="translate(3410.064 614.222)">
      <path id="Path_5394" data-name="Path 5394" d="M3456.118,523.648a86.243,86.243,0,0,1-35.611-164.789c4.09-1.842,7.954-9.4,8.218-15.867a11.691,11.691,0,0,1-2.435-3.96c-.968-2.63-1.432-6.892,1.859-12.264,2.5-3.941,6.643-6.535,12.682-7.955a1.674,1.674,0,1,1,.769,3.258c-5.147,1.212-8.618,3.328-10.609,6.468-4.809,7.848.275,12.283.494,12.468a1.7,1.7,0,0,1,.6,1.288c0,7.107-4.189,16.909-10.2,19.612a82.893,82.893,0,1,0,117.117,75.5c0-31.519-18.671-60.461-48.726-75.531-6.63-3.353-10.134-10.123-10.134-19.583a1.676,1.676,0,0,1,.634-1.311c.6-.492,5.823-5.061.523-12.356-2.609-3.531-6.491-5.72-12.207-6.88a1.674,1.674,0,0,1,.666-3.281c6.578,1.334,11.1,3.933,14.243,8.18,6.076,8.363,1.33,14.487-.5,16.36.158,7.84,2.941,13.18,8.283,15.879,31.191,15.64,50.568,45.728,50.568,78.523A86.337,86.337,0,0,1,3456.118,523.648Z" transform="translate(-3369.879 -318.433)"/>
    </g>
    <g id="Group_11444" data-name="Group 11444" transform="translate(3494.713 393.198)">
      <path id="Path_5395" data-name="Path 5395" d="M3411.849,221.668c-.924,0-1.674-.25-1.674-.559V50.268c0-.309.75-.559,1.674-.559s1.677.25,1.677.559V221.11C3413.525,221.418,3412.775,221.668,3411.849,221.668Z" transform="translate(-3410.175 -49.709)"/>
    </g>
    <g id="Group_11445" data-name="Group 11445" transform="translate(3483.745 627.786)">
      <path id="Path_5396" data-name="Path 5396" d="M3406.628,415.063a1.675,1.675,0,0,1-1.674-1.674V327.4a1.674,1.674,0,0,1,1.4-1.653,77.087,77.087,0,0,1,11.238-.859,94.262,94.262,0,0,1,11.2.853,1.677,1.677,0,0,1,1.441,1.66v72.088a1.675,1.675,0,0,1-3.351,0V328.877a85.936,85.936,0,0,0-9.294-.639,75.732,75.732,0,0,0-9.293.618v84.533A1.675,1.675,0,0,1,3406.628,415.063Z" transform="translate(-3404.954 -324.89)"/>
    </g>
    <g id="Group_11446" data-name="Group 11446" transform="translate(3483.745 628.623)">
      <path id="Path_5397" data-name="Path 5397" d="M3406.628,413.035a1.674,1.674,0,0,1-1.214-2.828l20.142-21.219-19.472-6.689a1.676,1.676,0,0,1-.641-2.767l20.188-20.186-19.661-8.4a1.674,1.674,0,0,1-.54-2.71l21.938-22.44a1.674,1.674,0,0,1,2.393,2.342l-20.226,20.69,19.688,8.415a1.676,1.676,0,0,1,.525,2.725L3409.71,380l19.4,6.663a1.675,1.675,0,0,1,.672,2.737l-21.937,23.11A1.668,1.668,0,0,1,3406.628,413.035Z" transform="translate(-3404.954 -325.288)"/>
    </g>
    <g id="Group_11447" data-name="Group 11447" transform="translate(3575.677 618.994)">
      <path id="Path_5398" data-name="Path 5398" d="M3450.39,342.641a1.674,1.674,0,0,1-1.258-2.779l16.327-18.587a1.675,1.675,0,1,1,2.517,2.21l-16.327,18.587A1.666,1.666,0,0,1,3450.39,342.641Z" transform="translate(-3448.716 -320.705)"/>
    </g>
    <g id="Group_11448" data-name="Group 11448" transform="translate(3623.401 697.11)">
      <path id="Path_5399" data-name="Path 5399" d="M3473.108,366.181a1.675,1.675,0,0,1-.328-3.317l24.7-4.941a1.675,1.675,0,0,1,.658,3.285l-24.7,4.939A1.629,1.629,0,0,1,3473.108,366.181Z" transform="translate(-3471.434 -357.89)"/>
    </g>
    <g id="Group_11449" data-name="Group 11449" transform="translate(3624.071 784.356)">
      <path id="Path_5400" data-name="Path 5400" d="M3487.243,406.622a1.739,1.739,0,0,1-.449-.061l-13.814-3.853a1.674,1.674,0,1,1,.9-3.225l13.814,3.851a1.674,1.674,0,0,1-.45,3.288Z" transform="translate(-3471.753 -399.421)"/>
    </g>
    <g id="Group_11450" data-name="Group 11450" transform="translate(3578.356 849.076)">
      <path id="Path_5401" data-name="Path 5401" d="M3472.932,455.85a1.668,1.668,0,0,1-1.21-.517l-21.268-22.272a1.675,1.675,0,0,1,2.422-2.313l21.268,22.272a1.673,1.673,0,0,1-1.212,2.83Z" transform="translate(-3449.991 -430.23)"/>
    </g>
    <g id="Group_11451" data-name="Group 11451" transform="translate(3499.318 868.669)">
      <path id="Path_5402" data-name="Path 5402" d="M3414.043,450.357a1.676,1.676,0,0,1-1.677-1.674v-7.451a1.675,1.675,0,0,1,3.351,0v7.451A1.675,1.675,0,0,1,3414.043,450.357Z" transform="translate(-3412.367 -439.557)"/>
    </g>
    <g id="Group_11452" data-name="Group 11452" transform="translate(3401.86 846.395)">
      <path id="Path_5403" data-name="Path 5403" d="M3367.647,459.181a1.676,1.676,0,0,1-1.378-2.624l18.5-26.877a1.674,1.674,0,1,1,2.758,1.9l-18.5,26.877A1.675,1.675,0,0,1,3367.647,459.181Z" transform="translate(-3365.974 -428.954)"/>
    </g>
    <g id="Group_11453" data-name="Group 11453" transform="translate(3333.372 769.367)">
      <path id="Path_5404" data-name="Path 5404" d="M3335.043,399.573a1.675,1.675,0,0,1-.4-3.3l16.161-3.937a1.676,1.676,0,0,1,.792,3.256l-16.159,3.935A1.737,1.737,0,0,1,3335.043,399.573Z" transform="translate(-3333.372 -392.287)"/>
    </g>
    <g id="Group_11454" data-name="Group 11454" transform="translate(3349.111 662.867)">
      <path id="Path_5405" data-name="Path 5405" d="M3365.731,358.921a1.654,1.654,0,0,1-.863-.242L3341.676,344.7a1.674,1.674,0,1,1,1.727-2.867l23.194,13.982a1.675,1.675,0,0,1-.866,3.109Z" transform="translate(-3340.864 -341.589)"/>
    </g>
    <g id="Group_11455" data-name="Group 11455" transform="translate(3399.515 622.929)">
      <path id="Path_5406" data-name="Path 5406" d="M3373.9,336.979a1.667,1.667,0,0,1-1.4-.746l-7.37-11.052a1.675,1.675,0,0,1,2.788-1.857l7.367,11.052a1.672,1.672,0,0,1-1.39,2.6Z" transform="translate(-3364.858 -322.578)"/>
    </g>
    <g id="Group_11456" data-name="Group 11456" transform="translate(3425.221 714.275)">
      <path id="Path_5407" data-name="Path 5407" d="M3378.769,386.658a1.673,1.673,0,0,1-1.674-1.674,70.787,70.787,0,0,1,2.229-17.665,1.675,1.675,0,0,1,3.244.834,67.516,67.516,0,0,0-2.124,16.831A1.674,1.674,0,0,1,3378.769,386.658Z" transform="translate(-3377.095 -366.061)"/>
    </g>
    <g id="Group_11457" data-name="Group 11457" transform="translate(3545.117 756.557)">
      <path id="Path_5408" data-name="Path 5408" d="M3435.843,412.4a1.675,1.675,0,0,1-1.216-2.828,68.677,68.677,0,0,0,14.142-22.316,1.674,1.674,0,1,1,3.118,1.223,71.988,71.988,0,0,1-14.829,23.4A1.664,1.664,0,0,1,3435.843,412.4Z" transform="translate(-3434.169 -386.189)"/>
    </g>
    <g id="Group_11458" data-name="Group 11458" transform="translate(3430.997 674.505)">
      <path id="Path_5409" data-name="Path 5409" d="M3381.518,379.616a1.647,1.647,0,0,1-.668-.141,1.674,1.674,0,0,1-.866-2.2,71.246,71.246,0,0,1,24.436-29.839,1.674,1.674,0,1,1,1.922,2.742,67.917,67.917,0,0,0-23.288,28.435A1.672,1.672,0,0,1,3381.518,379.616Z" transform="translate(-3379.844 -347.129)"/>
    </g>
  </g>
</svg>
